<svg width="172" height="63" viewBox="0 0 172 63" version="1.1" xmlns="http://www.w3.org/2000/svg" xmlns:xlink="http://www.w3.org/1999/xlink">
<title>Group</title>
<desc>Created using Figma</desc>
<g id="Canvas" transform="translate(-6559 -1342)">
<g id="Group">
<g id="&#227;&#129;&#130;">
<use xlink:href="#path0_fill" transform="translate(6665 1318)"/>
</g>
<g id="A">
<use xlink:href="#path1_fill" transform="translate(6559 1318)"/>
</g>
<g id="Arrow">
<use xlink:href="#path2_stroke" transform="matrix(1 -2.44929e-16 2.44929e-16 1 6624 1377)" fill="#FF9B52"/>
</g>
</g>
</g>
<defs>
<path id="path0_fill" d="M 31.104 56.792C 31.104 55.64 31.176 54.344 31.32 53.048C 35.136 51.32 38.592 50.456 42.048 50.312C 40.464 54.488 36.36 60.32 32.328 64.64C 31.608 62.552 31.104 60.032 31.104 56.792ZM 15.624 74.648C 14.4 74.648 13.896 74 13.896 72.632C 13.896 68.096 18.288 61.112 25.416 56.288C 25.344 57.224 25.344 58.16 25.344 59.024C 25.344 62.696 25.704 66.512 26.496 69.824C 22.824 72.56 18.648 74.648 15.624 74.648ZM 39.816 43.616C 41.76 44.912 42.696 46.136 42.696 47.648C 38.808 47.792 35.136 48.512 31.68 49.664C 32.04 47.288 32.472 44.768 32.976 42.32C 40.608 41.024 47.736 39.008 51.12 37.712C 52.992 36.992 53.928 35.984 53.928 34.328C 53.928 32.24 51.84 31.088 48.024 31.088C 47.16 31.088 42.48 34.112 34.488 36.056L 34.848 34.472C 35.496 31.808 37.368 30.944 37.368 29.072C 37.368 27.2 32.256 24.752 28.08 24.752C 26.64 24.752 24.48 25.76 22.968 26.552L 23.04 27.56C 24.48 27.848 25.992 28.208 27.072 28.64C 28.296 29.072 28.584 29.504 28.584 30.8C 28.584 32.24 28.296 34.544 27.936 37.208C 25.848 37.496 23.688 37.64 21.456 37.64C 17.424 37.64 14.616 36.56 11.016 34.184L 10.224 34.904C 11.88 40.376 14.328 43.616 20.232 43.616C 22.392 43.616 24.696 43.472 27 43.184C 26.568 46.136 26.064 49.232 25.776 52.184C 15.984 57.08 7.488 65.936 7.488 75.296C 7.488 79.616 9.864 81.848 13.464 81.848C 18 81.848 23.472 79.544 28.656 75.296C 29.664 77.024 30.96 78.032 32.544 78.032C 34.56 78.032 36 77.096 36 74.864C 36 73.064 35.28 71.48 34.488 69.68C 39.816 63.848 44.712 56.648 46.944 50.672C 53.64 52.112 57.6 57.224 57.6 63.848C 57.6 73.568 49.464 82.064 30.6 85.592L 30.888 86.96C 51.264 86.888 65.592 80.768 65.592 65.864C 65.592 57.152 58.824 49.304 47.664 47.864C 47.736 47 47.448 46.208 46.8 45.488C 45.36 43.976 43.2 43.184 40.392 42.752L 39.816 43.616Z"/>
<path id="path1_fill" d="M 42.6753 87L 38.4829 73.2363L 17.4023 73.2363L 13.21 87L 0 87L 20.4082 28.9395L 35.3979 28.9395L 55.8853 87L 42.6753 87ZM 35.5562 62.9531C 31.6802 50.4814 29.4917 43.4282 28.9907 41.7935C 28.5161 40.1587 28.1733 38.8667 27.9624 37.9175C 27.0923 41.2925 24.6006 49.6377 20.4873 62.9531L 35.5562 62.9531Z"/>
<path id="path2_stroke" d="M 40.4142 1.41421C 41.1953 0.633165 41.1953 -0.633165 40.4142 -1.41421L 27.6863 -14.1421C 26.9052 -14.9232 25.6389 -14.9232 24.8579 -14.1421C 24.0768 -13.3611 24.0768 -12.0948 24.8579 -11.3137L 36.1716 0L 24.8579 11.3137C 24.0768 12.0948 24.0768 13.3611 24.8579 14.1421C 25.6389 14.9232 26.9052 14.9232 27.6863 14.1421L 40.4142 1.41421ZM 0 2L 39 2L 39 -2L 0 -2L 0 2Z"/>
</defs>
</svg>
